<svg xmlns="http://www.w3.org/2000/svg" width="33.965" height="27.586" viewBox="0 0 33.965 27.586">
  <path id="icon-twitter-member" d="M30.474,10.256c.022.3.022.6.022.905,0,9.2-7,19.806-19.806,19.806A19.672,19.672,0,0,1,0,27.842a14.4,14.4,0,0,0,1.681.086,13.941,13.941,0,0,0,8.642-2.974,6.973,6.973,0,0,1-6.509-4.828,8.779,8.779,0,0,0,1.315.108A7.362,7.362,0,0,0,6.961,20a6.962,6.962,0,0,1-5.582-6.832v-.086a7.011,7.011,0,0,0,3.147.884,6.972,6.972,0,0,1-2.155-9.31,19.787,19.787,0,0,0,14.353,7.284,7.858,7.858,0,0,1-.172-1.595A6.968,6.968,0,0,1,28.6,5.579,13.705,13.705,0,0,0,33.017,3.9a6.942,6.942,0,0,1-3.06,3.836,13.955,13.955,0,0,0,4.009-1.078,14.964,14.964,0,0,1-3.491,3.6Z" transform="translate(0 -3.381)" fill="#4285f4"/>
</svg>
