<svg xmlns="http://www.w3.org/2000/svg" width="24.034" height="27.5" viewBox="0 0 24.034 27.5">
  <path id="Icon_awesome-calendar-alt" data-name="Icon awesome-calendar-alt" d="M0,24.922A2.577,2.577,0,0,0,2.575,27.5H21.459a2.577,2.577,0,0,0,2.575-2.578V10.313H0ZM17.167,14.395a.646.646,0,0,1,.644-.645h2.146a.646.646,0,0,1,.644.645v2.148a.646.646,0,0,1-.644.645H17.811a.646.646,0,0,1-.644-.645Zm0,6.875a.646.646,0,0,1,.644-.645h2.146a.646.646,0,0,1,.644.645v2.148a.646.646,0,0,1-.644.645H17.811a.646.646,0,0,1-.644-.645ZM10.3,14.395a.646.646,0,0,1,.644-.645H13.09a.646.646,0,0,1,.644.645v2.148a.646.646,0,0,1-.644.645H10.944a.646.646,0,0,1-.644-.645Zm0,6.875a.646.646,0,0,1,.644-.645H13.09a.646.646,0,0,1,.644.645v2.148a.646.646,0,0,1-.644.645H10.944a.646.646,0,0,1-.644-.645ZM3.433,14.395a.646.646,0,0,1,.644-.645H6.223a.646.646,0,0,1,.644.645v2.148a.646.646,0,0,1-.644.645H4.077a.646.646,0,0,1-.644-.645Zm0,6.875a.646.646,0,0,1,.644-.645H6.223a.646.646,0,0,1,.644.645v2.148a.646.646,0,0,1-.644.645H4.077a.646.646,0,0,1-.644-.645ZM21.459,3.438H18.884V.859A.861.861,0,0,0,18.026,0H16.309a.861.861,0,0,0-.858.859V3.438H8.584V.859A.861.861,0,0,0,7.725,0H6.009A.861.861,0,0,0,5.15.859V3.438H2.575A2.577,2.577,0,0,0,0,6.016V8.594H24.034V6.016A2.577,2.577,0,0,0,21.459,3.438Z" fill="#4285f4"/>
</svg>
