<svg xmlns="http://www.w3.org/2000/svg" xmlns:xlink="http://www.w3.org/1999/xlink" width="87.593" height="87.593" viewBox="0 0 87.593 87.593">
  <defs>
    <filter id="Icon_awesome-github-square" x="0" y="0" width="87.593" height="87.593" filterUnits="userSpaceOnUse">
      <feOffset dy="3" input="SourceAlpha"/>
      <feGaussianBlur stdDeviation="3" result="blur"/>
      <feFlood flood-opacity="0.161"/>
      <feComposite operator="in" in2="blur"/>
      <feComposite in="SourceGraphic"/>
    </filter>
  </defs>
  <g transform="matrix(1, 0, 0, 1, 0, 0)" filter="url(#Icon_awesome-github-square)">
    <path id="Icon_awesome-github-square-2" data-name="Icon awesome-github-square" d="M62.136,2.25H7.456A7.458,7.458,0,0,0,0,9.706v54.68a7.458,7.458,0,0,0,7.456,7.456h54.68a7.458,7.458,0,0,0,7.456-7.456V9.706A7.458,7.458,0,0,0,62.136,2.25Zm-19.06,59.6c-1.3.233-1.786-.575-1.786-1.243,0-.839.031-5.126.031-8.59a6.052,6.052,0,0,0-1.755-4.769c5.748-.637,11.806-1.429,11.806-11.355,0-2.827-1.01-4.241-2.656-6.058a9.715,9.715,0,0,0-.264-6.99c-2.159-.668-7.1,2.781-7.1,2.781a24.437,24.437,0,0,0-12.924,0s-4.94-3.449-7.1-2.781a9.64,9.64,0,0,0-.264,6.99A7.8,7.8,0,0,0,18.641,35.9c0,9.88,5.794,10.719,11.542,11.355a5.63,5.63,0,0,0-1.647,3.464c-1.476.668-5.251,1.817-7.5-2.159A5.412,5.412,0,0,0,17.072,45.9c-2.517-.031-.171,1.584-.171,1.584,1.678.777,2.858,3.759,2.858,3.759,1.507,4.614,8.715,3.06,8.715,3.06,0,2.159.031,5.67.031,6.307,0,.668-.466,1.476-1.786,1.243A25.772,25.772,0,0,1,9.289,37.264c0-14.26,10.9-25.088,25.165-25.088S60.272,23,60.272,37.264A25.535,25.535,0,0,1,43.076,61.854ZM27.837,52.363c-.3.062-.575-.062-.606-.264-.031-.233.171-.435.466-.5.3-.031.575.093.606.3C28.35,52.1,28.148,52.3,27.837,52.363Zm-1.476-.14c0,.2-.233.373-.544.373-.342.031-.575-.14-.575-.373,0-.2.233-.373.544-.373C26.082,51.819,26.361,51.99,26.361,52.223Zm-2.128-.171c-.062.2-.373.3-.637.2-.3-.062-.5-.3-.435-.5s.373-.3.637-.233C24.109,51.617,24.311,51.85,24.233,52.052Zm-1.911-.839c-.14.171-.435.14-.668-.093-.233-.2-.3-.5-.14-.637.14-.171.435-.14.668.093C22.385,50.779,22.462,51.089,22.323,51.214ZM20.909,49.8c-.14.093-.4,0-.575-.233s-.171-.5,0-.606c.171-.14.435-.031.575.2a.455.455,0,0,1,0,.637ZM19.9,48.293c-.14.14-.373.062-.544-.093-.171-.2-.2-.435-.062-.544.14-.14.373-.062.544.093C20.008,47.951,20.039,48.184,19.9,48.293Zm-1.041-1.15a.293.293,0,0,1-.435.062c-.2-.093-.3-.264-.233-.4a.366.366,0,0,1,.435-.062C18.827,46.848,18.921,47.019,18.858,47.144Z" transform="translate(9 3.75)" fill="#4285f4"/>
  </g>
</svg>
