<svg xmlns="http://www.w3.org/2000/svg" xmlns:xlink="http://www.w3.org/1999/xlink" width="87.593" height="87.578" viewBox="0 0 87.593 87.578">
  <defs>
    <filter id="Icon_awesome-instagram" x="0" y="0" width="87.593" height="87.578" filterUnits="userSpaceOnUse">
      <feOffset dy="3" input="SourceAlpha"/>
      <feGaussianBlur stdDeviation="3" result="blur"/>
      <feFlood flood-opacity="0.161"/>
      <feComposite operator="in" in2="blur"/>
      <feComposite in="SourceGraphic"/>
    </filter>
  </defs>
  <g transform="matrix(1, 0, 0, 1, 0, 0)" filter="url(#Icon_awesome-instagram)">
    <path id="Icon_awesome-instagram-2" data-name="Icon awesome-instagram" d="M34.8,19.188A17.839,17.839,0,1,0,52.638,37.027,17.811,17.811,0,0,0,34.8,19.188Zm0,29.436a11.6,11.6,0,1,1,11.6-11.6,11.619,11.619,0,0,1-11.6,11.6ZM57.529,18.458A4.161,4.161,0,1,1,53.368,14.3,4.151,4.151,0,0,1,57.529,18.458Zm11.815,4.223C69.08,17.107,67.807,12.17,63.723,8.1c-4.068-4.068-9-5.341-14.579-5.62-5.744-.326-22.962-.326-28.707,0-5.558.264-10.5,1.537-14.579,5.6s-5.341,9-5.62,14.579c-.326,5.744-.326,22.962,0,28.707C.5,56.946,1.776,61.883,5.86,65.951s9,5.341,14.579,5.62c5.744.326,22.962.326,28.707,0,5.574-.264,10.511-1.537,14.579-5.62,4.068-4.068,5.341-9,5.62-14.578.326-5.744.326-22.947,0-28.691ZM61.922,57.536a11.742,11.742,0,0,1-6.614,6.614c-4.58,1.816-15.448,1.4-20.509,1.4s-15.945.4-20.509-1.4a11.742,11.742,0,0,1-6.614-6.614c-1.816-4.58-1.4-15.448-1.4-20.509s-.4-15.945,1.4-20.509A11.742,11.742,0,0,1,14.29,9.9c4.58-1.816,15.448-1.4,20.509-1.4s15.945-.4,20.509,1.4a11.742,11.742,0,0,1,6.614,6.614c1.816,4.58,1.4,15.448,1.4,20.509S63.739,52.971,61.922,57.536Z" transform="translate(9.01 3.76)" fill="#4285f4"/>
  </g>
</svg>
