<svg xmlns="http://www.w3.org/2000/svg" xmlns:xlink="http://www.w3.org/1999/xlink" width="87.593" height="87.593" viewBox="0 0 87.593 87.593">
  <defs>
    <filter id="Icon_awesome-twitter-square" x="0" y="0" width="87.593" height="87.593" filterUnits="userSpaceOnUse">
      <feOffset dy="3" input="SourceAlpha"/>
      <feGaussianBlur stdDeviation="3" result="blur"/>
      <feFlood flood-opacity="0.161"/>
      <feComposite operator="in" in2="blur"/>
      <feComposite in="SourceGraphic"/>
    </filter>
  </defs>
  <g transform="matrix(1, 0, 0, 1, 0, 0)" filter="url(#Icon_awesome-twitter-square)">
    <path id="Icon_awesome-twitter-square-2" data-name="Icon awesome-twitter-square" d="M62.137,2.25H7.456A7.458,7.458,0,0,0,0,9.706V64.387a7.458,7.458,0,0,0,7.456,7.456H62.137a7.458,7.458,0,0,0,7.456-7.456V9.706A7.458,7.458,0,0,0,62.137,2.25Zm-7.6,24.668c.031.435.031.885.031,1.32,0,13.468-10.253,28.987-28.987,28.987A28.853,28.853,0,0,1,9.942,52.659a21.465,21.465,0,0,0,2.454.124,20.427,20.427,0,0,0,12.645-4.35,10.2,10.2,0,0,1-9.522-7.068,10.981,10.981,0,0,0,4.6-.186,10.189,10.189,0,0,1-8.155-10V31.05a10.181,10.181,0,0,0,4.6,1.289,10.167,10.167,0,0,1-4.536-8.482,10.061,10.061,0,0,1,1.383-5.142,28.928,28.928,0,0,0,21,10.656,10.21,10.21,0,0,1,17.383-9.305,19.964,19.964,0,0,0,6.462-2.454,10.162,10.162,0,0,1-4.474,5.608,20.275,20.275,0,0,0,5.872-1.584A21.445,21.445,0,0,1,54.541,26.918Z" transform="translate(9 3.75)" fill="#4285f4"/>
  </g>
</svg>
