<svg xmlns="http://www.w3.org/2000/svg" width="29.736" height="29.73" viewBox="0 0 29.736 29.73">
  <path id="icon-insta-member" d="M14.866,9.48A7.622,7.622,0,1,0,22.489,17.1,7.61,7.61,0,0,0,14.866,9.48Zm0,12.578A4.956,4.956,0,1,1,19.822,17.1a4.965,4.965,0,0,1-4.956,4.956Zm9.712-12.89A1.778,1.778,0,1,1,22.8,7.391,1.774,1.774,0,0,1,24.578,9.168Zm5.048,1.8a8.8,8.8,0,0,0-2.4-6.229A8.856,8.856,0,0,0,21,2.342c-2.455-.139-9.812-.139-12.266,0A8.843,8.843,0,0,0,2.5,4.737,8.827,8.827,0,0,0,.1,10.966C-.04,13.421-.04,20.778.1,23.232a8.8,8.8,0,0,0,2.4,6.229,8.867,8.867,0,0,0,6.229,2.4c2.455.139,9.812.139,12.266,0a8.8,8.8,0,0,0,6.229-2.4,8.856,8.856,0,0,0,2.4-6.229c.139-2.455.139-9.8,0-12.259ZM26.456,25.866a5.017,5.017,0,0,1-2.826,2.826c-1.957.776-6.6.6-8.763.6s-6.813.172-8.763-.6a5.017,5.017,0,0,1-2.826-2.826c-.776-1.957-.6-6.6-.6-8.763s-.172-6.813.6-8.763A5.017,5.017,0,0,1,6.1,5.513c1.957-.776,6.6-.6,8.763-.6s6.813-.172,8.763.6a5.017,5.017,0,0,1,2.826,2.826c.776,1.957.6,6.6.6,8.763S27.232,23.916,26.456,25.866Z" transform="translate(0.005 -2.238)" fill="#4285f4"/>
</svg>
